<svg width="133" height="42" viewBox="0 0 133 42" fill="none" xmlns="http://www.w3.org/2000/svg">
<path d="M16.0931 24.3865L10.9781 15.5271C8.88827 11.9076 10.14 7.23729 13.7594 5.14751C17.3789 3.05773 22.0492 4.30945 24.1384 7.92831L29.4573 17.1404L16.7357 24.4858C16.5259 24.4505 16.3119 24.4176 16.0931 24.3865Z" fill="#B0FFF2"/>
<path d="M16.7356 24.4862L29.4572 17.1409L34.7761 26.3536C36.8659 29.9731 35.6142 34.6434 31.9947 36.7332C28.5767 38.7064 24.222 37.6997 21.9875 34.5334V27.108C21.9881 25.9902 19.8786 25.014 16.7356 24.4862Z" fill="#49E3D7"/>
<path d="M16.7354 24.4864C19.8785 25.0143 21.9874 25.991 21.9874 27.1082C21.9874 28.1848 20.0285 29.1305 17.0738 29.6702L5.51123 24.5671C7.18736 24.2521 9.19345 24.0686 11.3496 24.0686C13.0538 24.0686 14.6642 24.1834 16.0922 24.3866C16.3116 24.4177 16.5256 24.4506 16.7354 24.4864Z" fill="white"/>
<path d="M5.51185 24.5664L17.0744 29.6695C15.4216 29.9714 13.4579 30.1465 11.3502 30.1465C5.47538 30.1465 0.712402 28.786 0.712402 27.1069C0.712402 26.0447 2.62106 25.1098 5.51185 24.5664Z" fill="white"/>
<path d="M0.712646 27.1074C0.712646 28.7859 5.47503 30.147 11.3504 30.147C13.4576 30.147 15.4218 29.9719 17.0746 29.67C20.0294 29.1302 21.9882 28.1846 21.9882 27.108V34.5334V34.7062C21.9882 36.3847 17.2259 37.7458 11.3504 37.7458C5.47563 37.7458 0.712646 36.3853 0.712646 34.7062V27.1074Z" fill="#B0FFF2"/>
<path d="M22.3342 9.79327C22.2218 9.85782 22.0992 9.88891 21.9785 9.88891C21.7322 9.88891 21.4925 9.76099 21.3604 9.53205C20.7692 8.50808 19.8032 7.78059 18.6412 7.4841C18.2598 7.38667 18.0297 6.99813 18.1271 6.61675C18.2245 6.23538 18.6125 6.00524 18.9944 6.10268C20.5319 6.49541 21.8111 7.4602 22.596 8.81951C22.792 9.16083 22.6755 9.5966 22.3342 9.79327Z" fill="#007F84"/>
<path d="M16.8206 7.40412C16.7794 7.41129 16.7387 7.41488 16.6981 7.41488C16.3603 7.41488 16.0603 7.17338 15.9975 6.82967C15.927 6.44232 16.184 6.07111 16.5713 6.00057C16.5821 5.99878 16.5929 5.99698 16.6042 5.99519C16.9928 5.93542 17.3544 6.20202 17.4142 6.59057C17.4746 6.97792 17.208 7.34135 16.8206 7.40412Z" fill="#007F84"/>
<path d="M0.000265673 27.1118V34.7058C0.000265673 35.8983 1.22269 36.8517 3.63287 37.5404C5.70412 38.1321 8.44487 38.4579 11.3506 38.4579C14.2563 38.4579 16.9971 38.1321 19.0683 37.5404C20.5968 37.104 21.6471 36.56 22.2114 35.9168C23.334 37.0801 24.7817 37.896 26.3927 38.2559C26.9977 38.391 27.6098 38.4579 28.2177 38.4579C29.6613 38.4579 31.0846 38.0819 32.3518 37.3503C34.2671 36.2444 35.6395 34.4517 36.2158 32.3016C36.792 30.1514 36.5003 27.9128 35.3944 25.997L30.0767 16.7866L30.0755 16.7842C30.0755 16.7842 30.0743 16.783 30.0743 16.7818L24.7566 7.57149C22.4654 3.60294 17.3725 2.23824 13.4033 4.52947C11.4881 5.63533 10.1156 7.42802 9.53937 9.57818C8.96313 11.7283 9.25484 13.967 10.3607 15.8828L14.7662 23.5126C13.6759 23.4092 12.527 23.3542 11.3506 23.3542C9.22734 23.3542 7.19076 23.53 5.43692 23.857C5.40166 23.8605 5.36698 23.8671 5.33291 23.8761C4.73096 23.9909 4.16369 24.1241 3.63885 24.2736C1.22448 24.9634 0.000265673 25.9168 0.000265673 27.1064C-0.000332091 27.1094 0.000265673 27.1106 0.000265673 27.1118ZM4.03038 25.6455C4.46675 25.5211 4.93659 25.4093 5.43274 25.3107L14.4673 29.2984C13.4721 29.3875 12.4248 29.4341 11.3506 29.4341C8.58116 29.4341 5.98148 29.1268 4.03038 28.5697C1.90055 27.9612 1.42892 27.3114 1.42593 27.1094V27.1076V27.1064C1.42772 26.9056 1.89756 26.2552 4.03038 25.6455ZM11.3506 24.7811C14.12 24.7811 16.7197 25.0883 18.6708 25.6455C20.8078 26.2558 21.2753 26.9079 21.2753 27.1076C21.2753 27.3073 20.8072 27.9588 18.6708 28.5697C18.2016 28.7036 17.6947 28.8226 17.1573 28.9272L8.10055 24.9299C9.13469 24.8325 10.228 24.7811 11.3506 24.7811ZM28.4837 16.8799L16.5972 23.7434C16.578 23.7404 16.5589 23.7368 16.5398 23.7338L11.5957 15.1703C10.6805 13.585 10.439 11.7301 10.9166 9.9482C11.3942 8.16626 12.5306 6.68022 14.1159 5.76505C17.4035 3.86655 21.6232 4.99692 23.5217 8.28522L28.4837 16.8799ZM22.7015 34.2981V27.1076C22.7015 27.1064 22.7015 27.1052 22.7015 27.104C22.6991 25.9157 21.4749 24.964 19.0629 24.2748C18.944 24.2407 18.8226 24.2078 18.6995 24.1762L29.1968 18.1148L34.1595 26.7101C35.0746 28.2954 35.3161 30.1502 34.8385 31.9327C34.3609 33.7147 33.2246 35.2007 31.6393 36.1159C28.6493 37.8416 24.7692 37.0364 22.7015 34.2981ZM1.42593 34.7058V29.0545C1.995 29.3863 2.73324 29.6816 3.63885 29.9404C5.71369 30.5334 8.45264 30.8598 11.3506 30.8598C13.429 30.8598 15.4244 30.6906 17.1525 30.3774C17.1848 30.3738 17.2164 30.3678 17.2481 30.36C17.8943 30.2399 18.5028 30.1006 19.0623 29.9404C19.968 29.6816 20.7062 29.3857 21.2753 29.0545V34.7058C21.2753 34.9066 20.8084 35.5606 18.6768 36.1697C16.7299 36.7262 14.1278 37.0323 11.3506 37.0323C8.57339 37.0323 5.97192 36.7256 4.02441 36.1697C1.89278 35.5606 1.42593 34.9066 1.42593 34.7058Z" fill="#007F84"/>
<path d="M45.1299 3.95679L45.1299 37.9188" stroke="white" stroke-width="1.61724" stroke-linecap="round"/>
<path d="M77.4695 4.05728V24H73.4695V11.0287L68.1267 24H65.0982L59.7268 11.0287V24H55.7268V4.05728H60.2696L66.6124 18.8857L72.9552 4.05728H77.4695ZM96.4241 15.7429C96.4241 16.3143 96.386 16.8286 96.3098 17.2858H84.7384C84.8337 18.4286 85.2337 19.3238 85.9384 19.9715C86.6432 20.6191 87.5098 20.9429 88.5384 20.9429C90.0241 20.9429 91.0812 20.3048 91.7098 19.0286H96.0241C95.5669 20.5524 94.6907 21.8095 93.3955 22.8C92.1003 23.7714 90.5098 24.2571 88.6241 24.2571C87.1003 24.2571 85.7289 23.9238 84.5099 23.2571C83.3099 22.5714 82.367 21.6095 81.6813 20.3715C81.0146 19.1334 80.6813 17.7048 80.6813 16.0858C80.6813 14.4477 81.0146 13.0096 81.6813 11.7715C82.348 10.5334 83.2813 9.58105 84.4813 8.91439C85.6813 8.24772 87.0622 7.91439 88.6241 7.91439C90.1289 7.91439 91.4717 8.2382 92.6527 8.88581C93.8526 9.53343 94.7765 10.4572 95.4241 11.6572C96.0907 12.8382 96.4241 14.2001 96.4241 15.7429ZM92.2812 14.6001C92.2622 13.5715 91.8908 12.7525 91.167 12.1429C90.4431 11.5144 89.5574 11.2001 88.5098 11.2001C87.5194 11.2001 86.6813 11.5048 85.9956 12.1144C85.3289 12.7048 84.9194 13.5334 84.767 14.6001H92.2812ZM98.6008 16.0286C98.6008 14.4286 98.9151 13.0096 99.5437 11.7715C100.191 10.5334 101.067 9.58105 102.172 8.91439C103.277 8.24772 104.506 7.91439 105.858 7.91439C106.886 7.91439 107.867 8.14296 108.801 8.6001C109.734 9.03819 110.477 9.62867 111.029 10.3715V2.85728H115.086V24H111.029V21.6572C110.534 22.4381 109.839 23.0667 108.944 23.5429C108.048 24.019 107.01 24.2571 105.829 24.2571C104.496 24.2571 103.277 23.9143 102.172 23.2286C101.067 22.5429 100.191 21.581 99.5437 20.3429C98.9151 19.0857 98.6008 17.6477 98.6008 16.0286ZM111.058 16.0858C111.058 15.1143 110.867 14.2858 110.486 13.6001C110.106 12.8953 109.591 12.362 108.944 12.0001C108.296 11.6191 107.601 11.4287 106.858 11.4287C106.115 11.4287 105.429 11.6096 104.801 11.9715C104.172 12.3334 103.658 12.8667 103.258 13.5715C102.877 14.2572 102.687 15.0762 102.687 16.0286C102.687 16.981 102.877 17.8191 103.258 18.5429C103.658 19.2477 104.172 19.7905 104.801 20.1715C105.448 20.5524 106.134 20.7429 106.858 20.7429C107.601 20.7429 108.296 20.5619 108.944 20.2C109.591 19.8191 110.106 19.2857 110.486 18.6C110.867 17.8953 111.058 17.0572 111.058 16.0858ZM125.336 24.2571C124.041 24.2571 122.879 24.0286 121.85 23.5714C120.822 23.0952 120.003 22.4572 119.393 21.6572C118.803 20.8572 118.479 19.9715 118.422 19H122.45C122.526 19.6096 122.822 20.1143 123.336 20.5143C123.869 20.9143 124.526 21.1143 125.307 21.1143C126.069 21.1143 126.66 20.9619 127.079 20.6572C127.517 20.3524 127.736 19.9619 127.736 19.4857C127.736 18.9715 127.469 18.5905 126.936 18.3429C126.422 18.0762 125.593 17.7905 124.45 17.4858C123.269 17.2 122.298 16.9048 121.536 16.6C120.793 16.2953 120.145 15.8286 119.593 15.2001C119.06 14.5715 118.793 13.7239 118.793 12.6572C118.793 11.781 119.041 10.981 119.536 10.2572C120.05 9.53343 120.774 8.962 121.707 8.54296C122.66 8.12392 123.774 7.91439 125.05 7.91439C126.936 7.91439 128.441 8.39058 129.564 9.34295C130.688 10.2763 131.307 11.5429 131.422 13.1429H127.593C127.536 12.5144 127.269 12.0191 126.793 11.6572C126.336 11.2763 125.717 11.0858 124.936 11.0858C124.212 11.0858 123.65 11.2191 123.25 11.4858C122.869 11.7525 122.679 12.1239 122.679 12.6001C122.679 13.1334 122.945 13.5429 123.479 13.8286C124.012 14.0953 124.841 14.3715 125.964 14.6572C127.107 14.9429 128.05 15.2382 128.793 15.5429C129.536 15.8477 130.174 16.3239 130.707 16.9715C131.26 17.6 131.545 18.4381 131.564 19.4857C131.564 20.4 131.307 21.2191 130.793 21.9429C130.298 22.6667 129.574 23.2381 128.622 23.6571C127.688 24.0571 126.593 24.2571 125.336 24.2571Z" fill="white"/>
<path d="M66.57 31.638L64.3116 38.8757H63.0701L61.3267 33.1305L59.5833 38.8757H58.3418L56.0701 31.638H57.2984L58.9625 37.7135L60.7588 31.638H61.9871L63.7436 37.7267L65.3814 31.638H66.57ZM67.6836 35.2305C67.6836 34.4909 67.8333 33.8437 68.1326 33.289C68.432 32.7255 68.8414 32.2896 69.3609 31.9814C69.8892 31.6733 70.4748 31.5192 71.1175 31.5192C71.7515 31.5192 72.3018 31.6557 72.7685 31.9286C73.2351 32.2016 73.5829 32.545 73.8119 32.9588V31.638H75.0269V38.8757H73.8119V37.5286C73.5741 37.9512 73.2175 38.3034 72.7421 38.5852C72.2754 38.8581 71.7295 38.9946 71.1043 38.9946C70.4616 38.9946 69.8804 38.8361 69.3609 38.5191C68.8414 38.2022 68.432 37.7575 68.1326 37.1852C67.8333 36.6129 67.6836 35.9613 67.6836 35.2305ZM73.8119 35.2437C73.8119 34.6978 73.7018 34.2223 73.4817 33.8173C73.2615 33.4122 72.9622 33.1041 72.5836 32.8928C72.2138 32.6726 71.8043 32.5626 71.3553 32.5626C70.9062 32.5626 70.4968 32.6682 70.127 32.8795C69.7572 33.0909 69.4622 33.399 69.2421 33.8041C69.022 34.2091 68.9119 34.6846 68.9119 35.2305C68.9119 35.7852 69.022 36.2695 69.2421 36.6833C69.4622 37.0883 69.7572 37.4009 70.127 37.621C70.4968 37.8323 70.9062 37.938 71.3553 37.938C71.8043 37.938 72.2138 37.8323 72.5836 37.621C72.9622 37.4009 73.2615 37.0883 73.4817 36.6833C73.7018 36.2695 73.8119 35.7896 73.8119 35.2437ZM78.6297 32.8135C78.841 32.3997 79.1404 32.0783 79.5278 31.8494C79.924 31.6204 80.4039 31.506 80.9674 31.506V32.7475H80.6504C79.3033 32.7475 78.6297 33.4783 78.6297 34.9399V38.8757H77.4278V31.638H78.6297V32.8135ZM89.3283 34.9795C89.3283 35.2085 89.3151 35.4506 89.2887 35.7059H83.5039C83.5479 36.4191 83.79 36.9783 84.2303 37.3833C84.6793 37.7795 85.2208 37.9776 85.8548 37.9776C86.3743 37.9776 86.8057 37.8588 87.1491 37.621C87.5013 37.3745 87.7479 37.0487 87.8887 36.6437H89.1831C88.9894 37.3393 88.6019 37.9072 88.0208 38.3474C87.4397 38.7789 86.7177 38.9946 85.8548 38.9946C85.168 38.9946 84.5517 38.8405 84.0057 38.5323C83.4686 38.2242 83.046 37.7883 82.7378 37.2248C82.4297 36.6525 82.2756 35.9921 82.2756 35.2437C82.2756 34.4953 82.4253 33.8393 82.7246 33.2758C83.024 32.7123 83.4422 32.2808 83.9793 31.9814C84.5252 31.6733 85.1504 31.5192 85.8548 31.5192C86.5416 31.5192 87.1491 31.6689 87.6774 31.9682C88.2057 32.2676 88.6107 32.6814 88.8925 33.2097C89.1831 33.7292 89.3283 34.3192 89.3283 34.9795ZM88.0868 34.7286C88.0868 34.2707 87.9856 33.8789 87.7831 33.5531C87.5806 33.2185 87.3032 32.9676 86.951 32.8003C86.6076 32.6242 86.2246 32.5362 85.802 32.5362C85.1944 32.5362 84.6749 32.7299 84.2435 33.1173C83.8208 33.5047 83.5787 34.0418 83.5171 34.7286H88.0868ZM94.877 31.506C95.4229 31.506 95.916 31.6248 96.3563 31.8626C96.7965 32.0915 97.1399 32.4393 97.3864 32.906C97.6418 33.3726 97.7695 33.9405 97.7695 34.6097V38.8757H96.5808V34.7814C96.5808 34.0594 96.4003 33.5091 96.0393 33.1305C95.6783 32.7431 95.1852 32.5494 94.5601 32.5494C93.9261 32.5494 93.4198 32.7475 93.0412 33.1437C92.6714 33.5399 92.4865 34.1166 92.4865 34.8739V38.8757H91.2846V29.1022H92.4865V32.6682C92.7242 32.2984 93.05 32.0123 93.4638 31.8097C93.8865 31.6072 94.3575 31.506 94.877 31.506ZM103.259 38.9946C102.581 38.9946 101.965 38.8405 101.41 38.5323C100.864 38.2242 100.433 37.7883 100.116 37.2248C99.8076 36.6525 99.6535 35.9921 99.6535 35.2437C99.6535 34.5041 99.812 33.8525 100.129 33.289C100.455 32.7167 100.895 32.2808 101.45 31.9814C102.004 31.6733 102.625 31.5192 103.312 31.5192C103.999 31.5192 104.619 31.6733 105.174 31.9814C105.729 32.2808 106.165 32.7123 106.482 33.2758C106.808 33.8393 106.97 34.4953 106.97 35.2437C106.97 35.9921 106.803 36.6525 106.469 37.2248C106.143 37.7883 105.698 38.2242 105.135 38.5323C104.571 38.8405 103.946 38.9946 103.259 38.9946ZM103.259 37.938C103.691 37.938 104.096 37.8367 104.474 37.6342C104.853 37.4317 105.157 37.1279 105.386 36.7229C105.623 36.3179 105.742 35.8248 105.742 35.2437C105.742 34.6626 105.628 34.1695 105.399 33.7644C105.17 33.3594 104.87 33.06 104.501 32.8663C104.131 32.6638 103.73 32.5626 103.299 32.5626C102.858 32.5626 102.453 32.6638 102.084 32.8663C101.723 33.06 101.432 33.3594 101.212 33.7644C100.992 34.1695 100.882 34.6626 100.882 35.2437C100.882 35.8336 100.987 36.3311 101.199 36.7361C101.419 37.1412 101.709 37.4449 102.07 37.6474C102.431 37.8411 102.828 37.938 103.259 37.938ZM115.339 31.638V38.8757H114.137V37.8059C113.908 38.1757 113.587 38.4663 113.173 38.6776C112.768 38.8801 112.319 38.9814 111.826 38.9814C111.263 38.9814 110.756 38.8669 110.307 38.638C109.858 38.4003 109.502 38.0481 109.237 37.5814C108.982 37.1147 108.854 36.5468 108.854 35.8776V31.638H110.043V35.7191C110.043 36.4324 110.224 36.9827 110.585 37.3701C110.946 37.7487 111.439 37.938 112.064 37.938C112.707 37.938 113.213 37.7399 113.583 37.3437C113.953 36.9474 114.137 36.3707 114.137 35.6135V31.638H115.339ZM120.301 38.9946C119.746 38.9946 119.248 38.9021 118.808 38.7172C118.368 38.5235 118.02 38.2594 117.765 37.9248C117.509 37.5814 117.369 37.1896 117.342 36.7493H118.584C118.619 37.1103 118.786 37.4053 119.086 37.6342C119.394 37.8632 119.794 37.9776 120.287 37.9776C120.745 37.9776 121.106 37.8764 121.37 37.6739C121.635 37.4713 121.767 37.216 121.767 36.9078C121.767 36.5908 121.626 36.3575 121.344 36.2078C121.062 36.0493 120.626 35.8952 120.037 35.7456C119.499 35.6047 119.059 35.4638 118.716 35.3229C118.381 35.1732 118.091 34.9575 117.844 34.6758C117.606 34.3852 117.487 34.0066 117.487 33.5399C117.487 33.1701 117.598 32.8311 117.818 32.5229C118.038 32.2148 118.35 31.9726 118.755 31.7965C119.16 31.6116 119.623 31.5192 120.142 31.5192C120.943 31.5192 121.591 31.7217 122.084 32.1267C122.577 32.5317 122.841 33.0865 122.876 33.7909H121.674C121.648 33.4122 121.494 33.1085 121.212 32.8795C120.939 32.6506 120.569 32.5362 120.103 32.5362C119.671 32.5362 119.328 32.6286 119.072 32.8135C118.817 32.9984 118.689 33.2405 118.689 33.5399C118.689 33.7777 118.764 33.9758 118.914 34.1343C119.072 34.2839 119.266 34.4072 119.495 34.5041C119.733 34.5921 120.059 34.6934 120.472 34.8078C120.992 34.9487 121.414 35.0896 121.74 35.2305C122.066 35.3625 122.343 35.5651 122.572 35.838C122.81 36.111 122.933 36.4676 122.942 36.9078C122.942 37.304 122.832 37.6606 122.612 37.9776C122.392 38.2946 122.079 38.5455 121.674 38.7305C121.278 38.9065 120.82 38.9946 120.301 38.9946ZM131.612 34.9795C131.612 35.2085 131.599 35.4506 131.573 35.7059H125.788C125.832 36.4191 126.074 36.9783 126.514 37.3833C126.963 37.7795 127.505 37.9776 128.139 37.9776C128.658 37.9776 129.09 37.8588 129.433 37.621C129.785 37.3745 130.032 37.0487 130.173 36.6437H131.467C131.273 37.3393 130.886 37.9072 130.305 38.3474C129.724 38.7789 129.002 38.9946 128.139 38.9946C127.452 38.9946 126.836 38.8405 126.29 38.5323C125.753 38.2242 125.33 37.7883 125.022 37.2248C124.714 36.6525 124.56 35.9921 124.56 35.2437C124.56 34.4953 124.709 33.8393 125.009 33.2758C125.308 32.7123 125.726 32.2808 126.263 31.9814C126.809 31.6733 127.434 31.5192 128.139 31.5192C128.826 31.5192 129.433 31.6689 129.961 31.9682C130.49 32.2676 130.895 32.6814 131.176 33.2097C131.467 33.7292 131.612 34.3192 131.612 34.9795ZM130.371 34.7286C130.371 34.2707 130.27 33.8789 130.067 33.5531C129.865 33.2185 129.587 32.9676 129.235 32.8003C128.892 32.6242 128.509 32.5362 128.086 32.5362C127.478 32.5362 126.959 32.7299 126.527 33.1173C126.105 33.5047 125.863 34.0418 125.801 34.7286H130.371Z" fill="white"/>
</svg>
