<svg xmlns="http://www.w3.org/2000/svg" width="21" height="21" viewBox="0 0 21 21" fill="none">
    <path d="M13.5 14.2842L13.3529 15.0196C13.6846 15.086 14.0196 14.9221 14.1708 14.6196L13.5 14.2842ZM6.5 7.28418L6.16459 6.61336C5.86208 6.76461 5.69824 7.09962 5.76456 7.43127L6.5 7.28418ZM14.75 9.28418C14.75 9.69838 15.0858 10.0342 15.5 10.0342C15.9142 10.0342 16.25 9.69838 16.25 9.28418H14.75ZM11.5 4.53418C11.0858 4.53418 10.75 4.86997 10.75 5.28418C10.75 5.69839 11.0858 6.03418 11.5 6.03418V4.53418ZM18.75 9.28418C18.75 9.69838 19.0858 10.0342 19.5 10.0342C19.9142 10.0342 20.25 9.69838 20.25 9.28418H18.75ZM11.5 0.53418C11.0858 0.53418 10.75 0.86997 10.75 1.28418C10.75 1.69839 11.0858 2.03418 11.5 2.03418V0.53418ZM18.75 15.6383V17.2842H20.25V15.6383H18.75ZM3.5 2.03418H5.14593V0.53418H3.5V2.03418ZM13.5 14.2842C13.6471 13.5488 13.6473 13.5488 13.6475 13.5488C13.6452 13.5483 13.64 13.5473 13.6331 13.5457C13.6193 13.5427 13.5967 13.5375 13.5659 13.5301C13.5044 13.5151 13.4104 13.4908 13.2898 13.4553C13.0482 13.3842 12.7016 13.2689 12.2954 13.0948C11.4796 12.7452 10.4439 12.1675 9.5303 11.2539L8.46967 12.3145C9.5561 13.4009 10.7704 14.0732 11.7046 14.4736C12.1734 14.6745 12.5768 14.8092 12.8665 14.8943C13.0115 14.937 13.1285 14.9674 13.2114 14.9876C13.2529 14.9977 13.2859 15.0052 13.3097 15.0105C13.3217 15.0131 13.3313 15.0151 13.3385 15.0167C13.3421 15.0174 13.3451 15.0181 13.3475 15.0185C13.3487 15.0188 13.3498 15.019 13.3507 15.0192C13.3511 15.0193 13.3515 15.0194 13.3519 15.0194C13.3521 15.0195 13.3528 15.0196 13.3529 15.0196C13.3532 15.0197 13.3529 15.0196 13.5 14.2842ZM9.5303 11.2539C8.6167 10.3403 8.03901 9.30458 7.68936 8.48878C7.51527 8.08254 7.39996 7.73602 7.3289 7.49443C7.29342 7.3738 7.26912 7.27983 7.25414 7.21824C7.24666 7.18747 7.24151 7.16483 7.23847 7.15105C7.23695 7.14417 7.23595 7.1395 7.23546 7.13714C7.23521 7.13596 7.23509 7.13536 7.23508 7.13535C7.23502 7.13506 7.23508 7.13534 7.23508 7.13535C7.23509 7.13536 7.23521 7.13596 7.23546 7.13714C7.23545 7.13708 7.23548 7.13725 7.23546 7.13714C7.2355 7.13734 7.23544 7.13709 6.5 7.28418C5.76456 7.43127 5.76451 7.43103 5.76456 7.43127C5.76458 7.43136 5.76473 7.43208 5.76477 7.43227C5.76484 7.43264 5.76492 7.43305 5.76501 7.4335C5.7652 7.4344 5.76541 7.43545 5.76566 7.43665C5.76615 7.43906 5.76677 7.44207 5.76753 7.44568C5.76905 7.45291 5.77111 7.46252 5.77374 7.47444C5.779 7.49826 5.78655 7.53128 5.79664 7.57277C5.81682 7.65572 5.84721 7.77269 5.88985 7.91768C5.97504 8.20734 6.10973 8.61078 6.31064 9.07958C6.71099 10.0138 7.38325 11.2281 8.46967 12.3145L9.5303 11.2539ZM6.83541 7.955L7.18943 7.77799L6.51861 6.43635L6.16459 6.61336L6.83541 7.955ZM8.5129 4.29699L7.69925 2.26286L6.30653 2.81994L7.12018 4.85408L8.5129 4.29699ZM18.5213 13.085L16.4872 12.2713L15.9301 13.664L17.9642 14.4777L18.5213 13.085ZM13.0062 13.5948L12.8292 13.9488L14.1708 14.6196L14.3478 14.2656L13.0062 13.5948ZM16.4872 12.2713C15.1592 11.7401 13.6458 12.3155 13.0062 13.5948L14.3478 14.2656C14.6386 13.6841 15.3265 13.4226 15.9301 13.664L16.4872 12.2713ZM7.18943 7.77799C8.46868 7.13837 9.0441 5.62494 8.5129 4.29699L7.12018 4.85408C7.36163 5.45769 7.10008 6.14561 6.51861 6.43635L7.18943 7.77799ZM5.14593 2.03418C5.65706 2.03418 6.1167 2.34537 6.30653 2.81994L7.69925 2.26286C7.28162 1.2188 6.27042 0.53418 5.14593 0.53418V2.03418ZM20.25 15.6383C20.25 14.5138 19.5654 13.5026 18.5213 13.085L17.9642 14.4777C18.4388 14.6675 18.75 15.1271 18.75 15.6383H20.25ZM17.5 18.5342C9.0777 18.5342 2.25 11.7065 2.25 3.28418H0.75C0.75 12.535 8.24923 20.0342 17.5 20.0342V18.5342ZM17.5 20.0342C19.0188 20.0342 20.25 18.803 20.25 17.2842H18.75C18.75 17.9746 18.1904 18.5342 17.5 18.5342V20.0342ZM2.25 3.28418C2.25 2.59382 2.80964 2.03418 3.5 2.03418V0.53418C1.98122 0.53418 0.75 1.7654 0.75 3.28418H2.25ZM16.25 9.28418C16.25 8.66038 16.1271 8.04273 15.8884 7.46643L14.5026 8.04046C14.6659 8.43478 14.75 8.85738 14.75 9.28418H16.25ZM15.8884 7.46643C15.6497 6.89014 15.2998 6.3665 14.8588 5.92542L13.7981 6.98608C14.0999 7.28787 14.3393 7.64615 14.5026 8.04046L15.8884 7.46643ZM14.8588 5.92542C14.4177 5.48434 13.894 5.13446 13.3177 4.89575L12.7437 6.28157C13.138 6.4449 13.4963 6.68429 13.7981 6.98608L14.8588 5.92542ZM13.3177 4.89575C12.7415 4.65704 12.1238 4.53418 11.5 4.53418V6.03418C11.9268 6.03418 12.3494 6.11824 12.7437 6.28157L13.3177 4.89575ZM20.25 9.28418C20.25 8.13511 20.0237 6.9973 19.5839 5.9357L18.1981 6.50972C18.5625 7.38934 18.75 8.33208 18.75 9.28418H20.25ZM19.5839 5.9357C19.1442 4.8741 18.4997 3.90951 17.6872 3.097L16.6265 4.15766C17.2997 4.83088 17.8338 5.63011 18.1981 6.50972L19.5839 5.9357ZM17.6872 3.097C16.8747 2.28448 15.9101 1.63996 14.8485 1.20023L14.2745 2.58605C15.1541 2.9504 15.9533 3.48443 16.6265 4.15766L17.6872 3.097ZM14.8485 1.20023C13.7869 0.76051 12.6491 0.53418 11.5 0.53418V2.03418C12.4521 2.03418 13.3948 2.22171 14.2745 2.58605L14.8485 1.20023Z" fill="#007F84"/>
</svg>