<svg xmlns="http://www.w3.org/2000/svg" width="30" height="31" viewBox="0 0 30 31" fill="none">
    <path d="M9.875 28.75C10.9105 28.75 11.75 27.9105 11.75 26.875C11.75 25.8395 10.9105 25 9.875 25C8.83947 25 8 25.8395 8 26.875C8 27.9105 8.83947 28.75 9.875 28.75Z" fill="white"/>
    <path d="M23 28.75C24.0355 28.75 24.875 27.9105 24.875 26.875C24.875 25.8395 24.0355 25 23 25C21.9645 25 21.125 25.8395 21.125 26.875C21.125 27.9105 21.9645 28.75 23 28.75Z" fill="white"/>
    <path d="M27.9763 6.00011H5.81507L4.99577 1.80019C4.94906 1.57092 4.82349 1.3653 4.64093 1.21913C4.45836 1.07296 4.23036 0.995486 3.99661 1.0002H0V3.00017H3.17731L6.99407 22.1998C7.04079 22.4291 7.16635 22.6347 7.34892 22.7809C7.53148 22.927 7.75948 23.0045 7.99323 22.9998H25.978V20.9998H8.81253L7.99323 16.9999H25.978C26.209 17.0056 26.4347 16.9309 26.6169 16.7887C26.7991 16.6465 26.9264 16.4455 26.9771 16.2199L28.9755 7.22009C29.0089 7.07172 29.0082 6.91765 28.9732 6.76963C28.9382 6.6216 28.8699 6.48352 28.7736 6.36587C28.6772 6.24823 28.5553 6.15414 28.4172 6.09076C28.279 6.02738 28.1282 5.99637 27.9763 6.00011ZM25.1787 14.9999H7.61355L6.21474 8.00007H26.7274L25.1787 14.9999Z" fill="white"/>
</svg>