<svg xmlns="http://www.w3.org/2000/svg" width="23" height="23" viewBox="0 0 23 23" fill="none">
    <path fill-rule="evenodd" clip-rule="evenodd" d="M0.75 11.2842C0.75 5.34712 5.56294 0.53418 11.5 0.53418C17.4371 0.53418 22.25 5.34712 22.25 11.2842C22.25 17.2212 17.4371 22.0342 11.5 22.0342C5.56294 22.0342 0.75 17.2212 0.75 11.2842ZM11.5 2.03418C6.39136 2.03418 2.25 6.17554 2.25 11.2842C2.25 16.3928 6.39136 20.5342 11.5 20.5342C16.6086 20.5342 20.75 16.3928 20.75 11.2842C20.75 6.17554 16.6086 2.03418 11.5 2.03418Z" fill="#007F84"/>
    <path fill-rule="evenodd" clip-rule="evenodd" d="M11.5041 4.53418C11.9183 4.53422 12.2541 4.87004 12.254 5.28425L12.2534 10.978L16.2734 14.998C16.5663 15.2908 16.5663 15.7657 16.2734 16.0586C15.9806 16.3515 15.5057 16.3515 15.2128 16.0586L10.9731 11.8189C10.8324 11.6782 10.7534 11.4874 10.7534 11.2885L10.754 5.2841C10.7541 4.86989 11.0899 4.53414 11.5041 4.53418Z" fill="#007F84"/>
</svg>