<svg xmlns="http://www.w3.org/2000/svg" width="23" height="17" viewBox="0 0 23 17" fill="none">
    <path fill-rule="evenodd" clip-rule="evenodd" d="M0.75 0.78418C0.75 0.369966 1.08579 0.0341797 1.5 0.0341797H21.5C21.9142 0.0341797 22.25 0.369966 22.25 0.78418V15.7842C22.25 16.1984 21.9142 16.5342 21.5 16.5342H1.5C1.08579 16.5342 0.75 16.1984 0.75 15.7842V0.78418ZM2.25 1.53418V15.0342H20.75V1.53418H2.25Z" fill="#007F84"/>
    <path fill-rule="evenodd" clip-rule="evenodd" d="M0.900044 0.334224C1.14857 0.00285298 1.61867 -0.0643043 1.95004 0.184224L11.5 7.34672L21.05 0.184224C21.3814 -0.0643043 21.8515 0.00285298 22.1 0.334224C22.3486 0.665595 22.2814 1.1357 21.95 1.38422L11.95 8.88422C11.6834 9.08422 11.3167 9.08422 11.05 8.88422L1.05004 1.38422C0.718673 1.1357 0.651516 0.665595 0.900044 0.334224Z" fill="#007F84"/>
    <path fill-rule="evenodd" clip-rule="evenodd" d="M0.75 0.78418C0.75 0.369966 1.08579 0.0341797 1.5 0.0341797H11.5C11.9142 0.0341797 12.25 0.369966 12.25 0.78418C12.25 1.19839 11.9142 1.53418 11.5 1.53418H2.25V8.28418C2.25 8.69839 1.91421 9.03418 1.5 9.03418C1.08579 9.03418 0.75 8.69839 0.75 8.28418V0.78418Z" fill="#007F84"/>
    <path fill-rule="evenodd" clip-rule="evenodd" d="M10.75 0.78418C10.75 0.369966 11.0858 0.0341797 11.5 0.0341797H21.5C21.9142 0.0341797 22.25 0.369966 22.25 0.78418V8.28418C22.25 8.69839 21.9142 9.03418 21.5 9.03418C21.0858 9.03418 20.75 8.69839 20.75 8.28418V1.53418H11.5C11.0858 1.53418 10.75 1.19839 10.75 0.78418Z" fill="#007F84"/>
</svg>